<?xml version="1.0" standalone="no"?>
<!DOCTYPE svg PUBLIC "-//W3C//DTD SVG 20010904//EN"
 "http://www.w3.org/TR/2001/REC-SVG-20010904/DTD/svg10.dtd">
<svg version="1.0" xmlns="http://www.w3.org/2000/svg"
 width="384.000000pt" height="384.000000pt" viewBox="0 0 384.000000 384.000000"
 preserveAspectRatio="xMidYMid meet">
<metadata>
Created by potrace 1.14, written by Peter Selinger 2001-2017
</metadata>
<g transform="translate(0.000000,384.000000) scale(0.100000,-0.100000)"
fill="#000000" stroke="none">
<path d="M1758 3835 c-1 -2 -32 -6 -68 -9 -36 -3 -72 -8 -80 -10 -8 -3 -31 -7
-50 -10 -19 -3 -50 -10 -68 -15 -18 -5 -36 -10 -40 -11 -18 -2 -93 -24 -157
-45 -401 -135 -758 -417 -997 -790 -98 -154 -214 -419 -242 -557 -45 -219 -51
-273 -51 -473 1 -170 7 -244 31 -365 117 -586 501 -1088 1032 -1350 200 -98
425 -165 629 -187 133 -15 450 -8 536 12 12 3 34 7 50 10 25 5 69 14 92 19 31
8 106 30 145 43 25 8 50 16 55 17 38 10 199 84 276 127 81 46 222 140 284 191
68 56 239 230 292 298 218 280 358 616 400 960 10 78 10 385 0 455 -7 53 -33
197 -41 230 -138 552 -511 1017 -1014 1265 -188 92 -395 156 -602 185 -49 7
-406 16 -412 10z"/>
</g>
</svg>
